<?xml version="1.0" encoding="utf-8"?>
<!-- Generator: Adobe Illustrator 24.0.2, SVG Export Plug-In . SVG Version: 6.00 Build 0)  -->
<svg version="1.1" id="Слой_1" xmlns="http://www.w3.org/2000/svg" xmlns:xlink="http://www.w3.org/1999/xlink" x="0px" y="0px"
	 viewBox="0 0 24 24" style="enable-background:new 0 0 24 24;" xml:space="preserve">
<g>
	<path d="M7.83,11.17v5.86c-0.64-0.27-1.38-0.42-2.18-0.42c-2.44,0-4.35,1.43-4.35,3.26c0,1.83,1.91,3.26,4.35,3.26
		c2.44,0,4.35-1.43,4.35-3.26v-7.97l8.7-3.48v6.43c-0.64-0.27-1.38-0.42-2.18-0.42c-2.44,0-4.35,1.43-4.35,3.26
		c0,1.83,1.91,3.26,4.35,3.26c2.44,0,4.35-1.43,4.35-3.26V0.86L7.83,6.08V11.17z M5.66,20.96c-1.33,0-2.18-0.64-2.18-1.09
		c0-0.44,0.85-1.09,2.18-1.09c1.33,0,2.18,0.64,2.18,1.09C7.83,20.32,6.98,20.96,5.66,20.96L5.66,20.96z M16.53,18.79
		c-1.33,0-2.18-0.64-2.18-1.09c0-0.44,0.85-1.09,2.18-1.09c1.33,0,2.18,0.64,2.18,1.09C18.71,18.14,17.86,18.79,16.53,18.79
		L16.53,18.79z M10.01,7.56l8.7-3.48v2.01l-8.7,3.48V7.56z M10.01,7.56"/>
</g>
</svg>
