<?xml version="1.0" encoding="utf-8"?>
<!-- Generator: Adobe Illustrator 24.0.2, SVG Export Plug-In . SVG Version: 6.00 Build 0)  -->
<svg version="1.1" id="Слой_1" xmlns="http://www.w3.org/2000/svg" xmlns:xlink="http://www.w3.org/1999/xlink" x="0px" y="0px"
	 viewBox="0 0 24 24" style="enable-background:new 0 0 24 24;" xml:space="preserve">
<g>
	<path d="M20.08,11.07l2.6-2.28l-2.55-4.42l-3.31,1.12c-0.5-0.37-1.03-0.68-1.59-0.92l-0.68-3.41h-5.1L8.77,4.56
		C8.21,4.8,7.68,5.11,7.18,5.48L3.87,4.36L1.32,8.78l2.6,2.28c-0.09,0.66-0.09,1.22,0,1.87l-2.6,2.28l2.55,4.42l3.31-1.12
		c0.5,0.37,1.03,0.68,1.59,0.92l0.68,3.41h5.1l0.68-3.41c0.56-0.24,1.09-0.55,1.59-0.92l3.31,1.12l2.55-4.42l-2.6-2.28
		C20.16,12.28,20.16,11.72,20.08,11.07L20.08,11.07z M20.37,15.6l-1.07,1.85l-2.85-0.96c-1.2,1.01-1.53,1.17-2.79,1.62l-0.59,2.94
		h-2.14l-0.59-2.94c-1.44-0.52-1.74-0.73-2.79-1.62L4.7,17.45L3.63,15.6l2.24-1.97c-0.28-1.54-0.28-1.72,0-3.26L3.63,8.4L4.7,6.55
		l2.85,0.96c1.2-1.02,1.54-1.17,2.79-1.62l0.59-2.94h2.14l0.59,2.94c1.44,0.52,1.74,0.73,2.79,1.62l2.85-0.96l1.07,1.85l-2.24,1.97
		c0.28,1.54,0.28,1.72,0,3.26L20.37,15.6z M20.37,15.6"/>
	<path d="M12,9.29c-1.5,0-2.71,1.22-2.71,2.71c0,1.5,1.22,2.71,2.71,2.71c1.5,0,2.71-1.22,2.71-2.71C14.71,10.5,13.5,9.29,12,9.29
		L12,9.29z M12,12.9c-0.5,0-0.9-0.41-0.9-0.9c0-0.5,0.41-0.9,0.9-0.9c0.5,0,0.9,0.41,0.9,0.9C12.9,12.5,12.5,12.9,12,12.9L12,12.9z
		 M12,12.9"/>
</g>
</svg>
