<?xml version="1.0" encoding="utf-8"?>
<!-- Generator: Adobe Illustrator 24.0.2, SVG Export Plug-In . SVG Version: 6.00 Build 0)  -->
<svg version="1.1" id="Слой_1" xmlns="http://www.w3.org/2000/svg" xmlns:xlink="http://www.w3.org/1999/xlink" x="0px" y="0px"
	 viewBox="0 0 24 24" style="enable-background:new 0 0 24 24;" xml:space="preserve">
<g>
	<path d="M17.58,8.96c2.24,0,4.06-1.82,4.06-4.06c0-2.24-1.82-4.06-4.06-4.06s-4.06,1.82-4.06,4.06c0,0.44,0.07,0.86,0.2,1.25
		L9.19,9.04c-0.73-0.68-1.7-1.09-2.77-1.09c-2.24,0-4.06,1.82-4.06,4.06s1.82,4.06,4.06,4.06c1.07,0,2.04-0.42,2.77-1.09l4.53,2.88
		c-0.13,0.39-0.2,0.82-0.2,1.25c0,2.24,1.82,4.06,4.06,4.06s4.06-1.82,4.06-4.06s-1.82-4.06-4.06-4.06c-1.07,0-2.04,0.42-2.77,1.09
		l-4.53-2.88c0.13-0.39,0.2-0.82,0.2-1.25s-0.07-0.86-0.2-1.25l4.53-2.88C15.54,8.54,16.51,8.96,17.58,8.96L17.58,8.96z M17.58,2.87
		c1.12,0,2.03,0.91,2.03,2.03c0,1.12-0.91,2.03-2.03,2.03c-1.12,0-2.03-0.91-2.03-2.03C15.55,3.78,16.46,2.87,17.58,2.87L17.58,2.87
		z M6.42,14.03c-1.12,0-2.03-0.91-2.03-2.03c0-1.12,0.91-2.03,2.03-2.03c1.12,0,2.03,0.91,2.03,2.03
		C8.45,13.12,7.54,14.03,6.42,14.03L6.42,14.03z M17.58,17.07c1.12,0,2.03,0.91,2.03,2.03c0,1.12-0.91,2.03-2.03,2.03
		c-1.12,0-2.03-0.91-2.03-2.03C15.55,17.98,16.46,17.07,17.58,17.07L17.58,17.07z M17.58,17.07"/>
</g>
</svg>
