<?xml version="1.0" encoding="utf-8"?>
<!-- Generator: Adobe Illustrator 24.0.2, SVG Export Plug-In . SVG Version: 6.00 Build 0)  -->
<svg version="1.1" id="Слой_1" xmlns="http://www.w3.org/2000/svg" xmlns:xlink="http://www.w3.org/1999/xlink" x="0px" y="0px"
	 viewBox="0 0 24 24" style="enable-background:new 0 0 24 24;" xml:space="preserve">
<g>
	<path d="M1.83,7.38v9.25h4.31l8.63,6.47V0.9L6.15,7.38H1.83z M5.53,14.77H3.68V9.23h1.85V14.77z M12.93,19.4l-5.55-4.16V8.76
		l5.55-4.16V19.4z M12.93,19.4"/>
	<path d="M19.74,6.12l-1.31,1.31c2.52,2.52,2.52,6.63,0,9.15l1.31,1.31C22.98,14.64,22.98,9.36,19.74,6.12L19.74,6.12z M19.74,6.12"
		/>
	<path d="M17.12,8.73l-1.31,1.31c1.08,1.08,1.08,2.84,0,3.92l1.31,1.31C18.92,13.47,18.92,10.53,17.12,8.73L17.12,8.73z M17.12,8.73
		"/>
</g>
</svg>
